<svg id="Layer_1" data-name="Layer 1" xmlns="http://www.w3.org/2000/svg" viewBox="0 0 21.69 22.59"><title>add-to-cart</title><path id="ic_add_shopping_cart_24px" data-name="ic add shopping cart 24px" d="M10.76,8.61h2.15V5.38h3.23V3.23H12.91V0H10.76V3.23H7.53V5.38h3.23Zm-4.3,9.68a2.15,2.15,0,1,0,2.15,2.15,2.15,2.15,0,0,0-2.15-2.15h0Zm10.75,0a2.15,2.15,0,1,0,2.16,2.15,2.15,2.15,0,0,0-2.16-2.15ZM6.64,14.79l0-.13,1-1.76h8a2.11,2.11,0,0,0,1.88-1.1l4.16-7.54-1.88-1h0L18.62,5.38l-3,5.38H8.1L8,10.47,5.55,5.38l-1-2.15-1-2.15H0V3.23H2.15L6,11.39,4.57,14a2.06,2.06,0,0,0-.27,1,2.15,2.15,0,0,0,2.15,2.15H19.36V15.06H6.91a.27.27,0,0,1-.27-.27Z"/></svg>