<svg id="Layer_1" data-name="Layer 1" xmlns="http://www.w3.org/2000/svg" viewBox="0 0 36.62 36.59"><title>avatar</title><path d="M25.26,28.45c-1-.29-2-.6-2.77-.92-1.21-.5-1.27-3.08-1.27-3.59v-.32l.22-.21a5.5,5.5,0,0,0,.91-1.24l.37-.6a11.36,11.36,0,0,0,1-1.81l.11-.27.27-.13a1,1,0,0,0,.43-.4,6,6,0,0,0,.71-3.46.3.3,0,0,0-.18-.15l-.5-.18v-.53c0-3.41-1.43-5.94-3.93-6.92A18.66,18.66,0,0,0,18,6.79a2.43,2.43,0,0,1-1.23-.69L16.63,6a1.91,1.91,0,0,0-.41.62.79.79,0,0,0-.08.31l-.05.67-.67,0A1.57,1.57,0,0,0,14,8.68l.13.4-.27.2A7.7,7.7,0,0,0,12,14.6l0,.59-.57.16a.32.32,0,0,0-.2.16A5.84,5.84,0,0,0,12,19a.89.89,0,0,0,.48.42l.29.12.13.29a9.91,9.91,0,0,0,1,1.81l.32.52a4.91,4.91,0,0,0,1,1.27l.28.24,0,.36c0,1-.29,3.21-1.39,3.52l-.53.16a35.53,35.53,0,0,0-6.92,2.67,16.78,16.78,0,0,0,23.44,0A22.37,22.37,0,0,0,25.26,28.45Z" transform="translate(0 0)" style="fill:none"/><path d="M13.1,26.23l.41-.12a5.2,5.2,0,0,0,.42-1.85,6.18,6.18,0,0,1-1.06-1.38l-.29-.46a11.79,11.79,0,0,1-1-1.78,2.39,2.39,0,0,1-.94-.95,7.37,7.37,0,0,1-.87-4.46l0-.15a1.88,1.88,0,0,1,.68-.91,9.11,9.11,0,0,1,2-5.61,1.13,1.13,0,0,1,.06-.36,3.05,3.05,0,0,1,2.21-2A1.54,1.54,0,0,1,14.85,6c.09-.21.64-1.45,1.67-1.6a1.29,1.29,0,0,1,1.4.75.82.82,0,0,0,.37.16,21.38,21.38,0,0,1,2.89,1c2.93,1.16,4.73,4.08,4.86,7.87a1.89,1.89,0,0,1,.62.87l0,.15a7.4,7.4,0,0,1-.87,4.45,2.42,2.42,0,0,1-.86.91,11.35,11.35,0,0,1-1,1.81l-.33.52a6.09,6.09,0,0,1-.93,1.32,4.31,4.31,0,0,0,.41,1.94c.72.29,1.66.57,2.56.84a22.28,22.28,0,0,1,5.41,2.16A16.8,16.8,0,1,0,1.5,18.3,16.69,16.69,0,0,0,5.57,29.22,32.11,32.11,0,0,1,13.1,26.23Z" transform="translate(0 0)" style="fill:none"/><path d="M18.31,0A18.3,18.3,0,1,0,36.62,18.3,18.32,18.32,0,0,0,18.31,0Zm0,1.5A16.77,16.77,0,0,1,31.1,29.17,22.28,22.28,0,0,0,25.69,27c-.9-.27-1.84-.55-2.56-.84a4.31,4.31,0,0,1-.41-1.94,6.09,6.09,0,0,0,.93-1.32l.33-.52a11.35,11.35,0,0,0,1-1.81,2.42,2.42,0,0,0,.86-.91,7.4,7.4,0,0,0,.87-4.45l0-.15A1.89,1.89,0,0,0,26,14.2c-.13-3.79-1.93-6.71-4.86-7.87a21.38,21.38,0,0,0-2.89-1,.82.82,0,0,1-.37-.16,1.29,1.29,0,0,0-1.4-.75c-1,.15-1.58,1.39-1.67,1.6a1.54,1.54,0,0,0-.08.19,3.05,3.05,0,0,0-2.21,2,1.13,1.13,0,0,0-.06.36,9.11,9.11,0,0,0-2,5.61,1.88,1.88,0,0,0-.68.91l0,.15a7.37,7.37,0,0,0,.87,4.46,2.39,2.39,0,0,0,.94.95,11.79,11.79,0,0,0,1,1.78l.29.46a6.18,6.18,0,0,0,1.06,1.38,5.2,5.2,0,0,1-.42,1.85l-.41.12a32.11,32.11,0,0,0-7.53,3A16.77,16.77,0,0,1,18.31,1.5ZM6.61,30.34a35.53,35.53,0,0,1,6.92-2.67l.53-.16C15.16,27.2,15.4,25,15.45,24l0-.36-.28-.24a4.91,4.91,0,0,1-1-1.27l-.32-.52a9.91,9.91,0,0,1-1-1.81l-.13-.29-.29-.12A.89.89,0,0,1,12,19a5.84,5.84,0,0,1-.7-3.45.32.32,0,0,1,.2-.16l.57-.16,0-.59a7.7,7.7,0,0,1,1.83-5.32l.27-.2L14,8.68a1.57,1.57,0,0,1,1.44-1.06l.67,0,.05-.67a.79.79,0,0,1,.08-.31A1.91,1.91,0,0,1,16.63,6l.09.11A2.43,2.43,0,0,0,18,6.79a18.66,18.66,0,0,1,2.66.93c2.5,1,3.93,3.51,3.93,6.92v.53l.5.18a.3.3,0,0,1,.18.15A6,6,0,0,1,24.51,19a1,1,0,0,1-.43.4l-.27.13-.11.27a11.36,11.36,0,0,1-1,1.81l-.37.6a5.5,5.5,0,0,1-.91,1.24l-.22.21v.32c0,.51.06,3.09,1.27,3.59.8.32,1.81.63,2.77.92a22.37,22.37,0,0,1,4.79,1.85,16.78,16.78,0,0,1-23.44,0Z" transform="translate(0 0)"/></svg>