<svg id="Layer_1" data-name="Layer 1" xmlns="http://www.w3.org/2000/svg" viewBox="0 0 56.09 51.54"><title>avatar-new</title><path d="M35.23,39.89l-.17,0a38.62,38.62,0,0,1-3.7-1.25c-1.17-.48-1.59-2.9-1.59-4.82v-.31l.22-.22a7.26,7.26,0,0,0,1.34-1.82l.5-.82a15.93,15.93,0,0,0,1.37-2.66l.12-.28.27-.12a1.7,1.7,0,0,0,.76-.69,9,9,0,0,0,1-5.14.8.8,0,0,0-.46-.46l-.48-.19v-.51c0-4.92-2.14-8.71-5.72-10.15A27.48,27.48,0,0,0,25,9.09a2.9,2.9,0,0,1-1.59-.89l-.14-.15,0-.2c-.29,0-.74.52-1,1.2a1.6,1.6,0,0,0-.14.54l-.05.67-.68,0A2.54,2.54,0,0,0,19,12l.15.41-.29.35a11.39,11.39,0,0,0-2.64,7.79l0,.58-.55.17a.71.71,0,0,0-.48.44,8.67,8.67,0,0,0,1,5.19,1.52,1.52,0,0,0,.82.74l.3.11.12.3a14.59,14.59,0,0,0,1.42,2.64l.44.73a7.59,7.59,0,0,0,1.51,1.82l.28.24,0,.37c0,1-.33,4.28-1.72,4.68l-.75.23c-2.7.82-7.5,2.31-10.16,4.08a24,24,0,0,0,17,7.18,23.87,23.87,0,0,0,17-7.17l.06-.06C40.66,41.58,37.83,40.7,35.23,39.89Z" transform="translate(0)" style="fill:none"/><polygon points="40.14 13.88 45.26 13.88 45.26 18.99 46.57 18.99 46.57 13.88 51.66 13.88 51.66 12.56 46.56 12.56 46.56 7.46 45.25 7.46 45.25 12.56 40.14 12.56 40.14 13.88" style="fill:none"/><path d="M35.73,13.22A10.17,10.17,0,0,1,39,5.79,23.51,23.51,0,0,0,25.43,1.5h0A24.07,24.07,0,0,0,1.5,25.78a24,24,0,0,0,5.92,16c2.23-1.55,5.92-2.91,10.75-4.4l.68-.2a6.87,6.87,0,0,0,.71-3A9,9,0,0,1,18,32.21l-.41-.69a16.29,16.29,0,0,1-1.43-2.6,3,3,0,0,1-1.3-1.3,10.2,10.2,0,0,1-1.17-6.14l0-.13a2.2,2.2,0,0,1,1-1.25,12.76,12.76,0,0,1,2.79-8,1.52,1.52,0,0,1,.08-.56,4,4,0,0,1,3.08-2.65,2.74,2.74,0,0,1,.15-.4c.18-.44.91-1.93,2.12-2.1a1.52,1.52,0,0,1,1.67.93,1.49,1.49,0,0,0,.71.35A28.69,28.69,0,0,1,29.3,9c4,1.63,6.5,5.76,6.63,11.09a2.31,2.31,0,0,1,.91,1.23l0,.14a10.55,10.55,0,0,1-1.21,6.11,3.23,3.23,0,0,1-1.17,1.18A17,17,0,0,1,33.1,31.4l-.47.77a8.74,8.74,0,0,1-1.36,1.9A5.74,5.74,0,0,0,32,37.23c.89.38,2.16.76,3.51,1.17l.17.05c2.9.9,5.85,1.83,7.79,3.25a23.91,23.91,0,0,0,5.86-15.91,25.87,25.87,0,0,0-.19-2.92,10.06,10.06,0,0,1-3.22.53A10.18,10.18,0,0,1,35.73,13.22Z" transform="translate(0)" style="fill:none"/><path d="M56.09,13.22A10.18,10.18,0,0,0,40.19,4.8,25.08,25.08,0,0,0,25.37,0h0A25.57,25.57,0,0,0,0,25.78,25.63,25.63,0,0,0,25.42,51.54a25.59,25.59,0,0,0,25.4-25.75,25.81,25.81,0,0,0-.25-3.52A10.2,10.2,0,0,0,56.09,13.22ZM45.25,7.46h1.31v5.1h5.1v1.32H46.57V19H45.26V13.88H40.14V12.56h5.11ZM25.42,50a24,24,0,0,1-17-7.18c2.66-1.77,7.46-3.26,10.16-4.08l.75-.23c1.39-.4,1.67-3.68,1.72-4.68l0-.37-.28-.24a7.59,7.59,0,0,1-1.51-1.82l-.44-.73a14.59,14.59,0,0,1-1.42-2.64l-.12-.3-.3-.11a1.52,1.52,0,0,1-.82-.74,8.67,8.67,0,0,1-1-5.19.71.71,0,0,1,.48-.44l.55-.17,0-.58a11.39,11.39,0,0,1,2.64-7.79l.29-.35L19,12a2.54,2.54,0,0,1,2.31-1.71l.68,0L22,9.59a1.6,1.6,0,0,1,.14-.54c.29-.68.74-1.19,1-1.2l0,.2.14.15A2.9,2.9,0,0,0,25,9.09a27.48,27.48,0,0,1,3.76,1.31c3.58,1.44,5.72,5.23,5.72,10.15v.51l.48.19a.8.8,0,0,1,.46.46,9,9,0,0,1-1,5.14,1.7,1.7,0,0,1-.76.69l-.27.12-.12.28a15.93,15.93,0,0,1-1.37,2.66l-.5.82A7.26,7.26,0,0,1,30,33.24l-.22.22v.31c0,1.92.42,4.34,1.59,4.82a38.62,38.62,0,0,0,3.7,1.25l.17,0c2.6.81,5.43,1.69,7.21,2.92l-.06.06A23.87,23.87,0,0,1,25.42,50Zm23.9-24.25A23.91,23.91,0,0,1,43.46,41.7c-1.94-1.42-4.89-2.35-7.79-3.25l-.17-.05c-1.35-.41-2.62-.79-3.51-1.17a5.74,5.74,0,0,1-.72-3.16,8.74,8.74,0,0,0,1.36-1.9l.47-.77a17,17,0,0,0,1.39-2.64,3.23,3.23,0,0,0,1.17-1.18,10.55,10.55,0,0,0,1.21-6.11l0-.14a2.31,2.31,0,0,0-.91-1.23C35.8,14.77,33.34,10.64,29.3,9a28.69,28.69,0,0,0-4-1.38,1.49,1.49,0,0,1-.71-.35,1.52,1.52,0,0,0-1.67-.93C21.7,6.52,21,8,20.79,8.45a2.74,2.74,0,0,0-.15.4,4,4,0,0,0-3.08,2.65,1.52,1.52,0,0,0-.08.56,12.76,12.76,0,0,0-2.79,8,2.2,2.2,0,0,0-1,1.25l0,.13a10.2,10.2,0,0,0,1.17,6.14,3,3,0,0,0,1.3,1.3,16.29,16.29,0,0,0,1.43,2.6l.41.69a9,9,0,0,0,1.54,1.93,6.87,6.87,0,0,1-.71,3l-.68.2c-4.83,1.49-8.52,2.85-10.75,4.4a24,24,0,0,1-5.92-16A24.07,24.07,0,0,1,25.4,1.5h0A23.51,23.51,0,0,1,39,5.79,10.17,10.17,0,0,0,45.91,23.4a10.06,10.06,0,0,0,3.22-.53A25.87,25.87,0,0,1,49.32,25.79Z" transform="translate(0)"/></svg>