<svg id="Layer_1" data-name="Layer 1" xmlns="http://www.w3.org/2000/svg" viewBox="0 0 31.54 33.47"><title>brand</title><path d="M12.64,14.05a2.65,2.65,0,0,1,1.62.54,2.77,2.77,0,0,1-1.2,5,2.79,2.79,0,0,1-1.42-5.36,18.14,18.14,0,0,0-.77-3.94l-3.66,1a2.2,2.2,0,0,0-1.63,2.21L6,19.72a2.05,2.05,0,0,0,.8,1.38L21,31.31a2.15,2.15,0,0,0,3-.46l5.51-7.58a2.16,2.16,0,0,0-.47-3L14.86,10a2.19,2.19,0,0,0-1.26-.4,2,2,0,0,0-.53.07L11.83,10A19.39,19.39,0,0,1,12.64,14.05Z" transform="translate(-0.04 0)" style="fill:none"/><path d="M11.36,15.74a2.05,2.05,0,0,0,.23-.66,2,2,0,0,0-.57.51l0,0a2,2,0,0,0-.28.56A1.18,1.18,0,0,0,11.36,15.74Z" transform="translate(-0.04 0)" style="fill:none"/><path d="M9.63,5.17C9.36,3.28,9.17,1.9,8.41,1.34a3.12,3.12,0,0,0-2.3-.26A6.08,6.08,0,0,0,1.11,8a9.94,9.94,0,0,0,2.78,4.73A3.86,3.86,0,0,1,6.75,9.54l3.63-1a20.7,20.7,0,0,1-.67-2.84Z" transform="translate(-0.04 0)" style="fill:none"/><path d="M10.65,17.25a2,2,0,0,0,4-.75,2.08,2.08,0,0,0-.81-1.32,2,2,0,0,0-1.19-.39,3.1,3.1,0,0,1-.43,1.48A2.2,2.2,0,0,1,10.65,17.25Z" transform="translate(-0.04 0)" style="fill:none"/><path d="M31.53,21.42h0A3.89,3.89,0,0,0,30,18.88L15.81,8.64A3.78,3.78,0,0,0,12.56,8l-1.21.32c.06.22.12.44.19.67s.2.69.29,1l1.24-.33a2,2,0,0,1,.53-.07,2.19,2.19,0,0,1,1.26.4L29,20.29a2.16,2.16,0,0,1,.47,3L24,30.85a2.15,2.15,0,0,1-3,.46L6.81,21.1A2.05,2.05,0,0,1,6,19.72l-.43-6.24a2.2,2.2,0,0,1,1.63-2.21l3.66-1c-.1-.34-.2-.68-.29-1s-.14-.47-.2-.7l-3.63,1a3.86,3.86,0,0,0-2.86,3.21c.33.35.68.7,1.06,1l-.66.76-.4-.38.3,5.45a3.93,3.93,0,0,0,1.63,2.87l14.1,10.26a3.89,3.89,0,0,0,5.41-.87l5.5-7.58A3.82,3.82,0,0,0,31.53,21.42Z" transform="translate(-0.04 0)"/><path d="M5,13.78c-.38-.33-.73-.68-1.06-1A9.94,9.94,0,0,1,1.11,8a6.08,6.08,0,0,1,5-6.94,3.12,3.12,0,0,1,2.3.26c.76.56.95,1.94,1.22,3.83l.08.57a20.7,20.7,0,0,0,.67,2.84c.06.23.13.46.2.7s.19.67.29,1a18.14,18.14,0,0,1,.77,3.94,2.82,2.82,0,1,0,2.62.36,2.65,2.65,0,0,0-1.62-.54,19.39,19.39,0,0,0-.81-4c-.09-.35-.19-.69-.29-1s-.13-.45-.19-.67A20.58,20.58,0,0,1,10.7,5.6L10.62,5C10.32,2.9,10.1,1.35,9,.54A3.9,3.9,0,0,0,6,.1,7.07,7.07,0,0,0,.12,8.17c.24,1.75,1.71,4.06,3.77,6l.4.38Zm6,1.85,0,0a2,2,0,0,1,.57-.51,2.05,2.05,0,0,1-.23.66,1.18,1.18,0,0,1-.65.45A2,2,0,0,1,11,15.63Zm2.83-.45a2.08,2.08,0,0,1,.81,1.32,2,2,0,0,1-4,.75,2.2,2.2,0,0,0,1.55-1,3.1,3.1,0,0,0,.43-1.48A2,2,0,0,1,13.82,15.18Z" transform="translate(-0.04 0)"/></svg>