<svg id="Layer_1" data-name="Layer 1" xmlns="http://www.w3.org/2000/svg" viewBox="0 0 50.08 61.82"><title>cart-empty</title><g id="Group_54" data-name="Group 54"><g id="awLayer_2" data-name="awLayer 2"><path id="awmain" d="M49.68,27.54A1.63,1.63,0,0,1,50,29.11L45.46,45.28a1.74,1.74,0,0,1-1.71,1.3H19.12l1.18,4.27H40.37a5.49,5.49,0,1,1-5.62,5.35h0a5.34,5.34,0,0,1,.35-1.81H24a5.47,5.47,0,1,1-7.28-3.11L8,19.58H1.78a1.78,1.78,0,0,1,0-3.56h7.5A1.68,1.68,0,0,1,11,17.34l2.64,9.55H48.29A1.62,1.62,0,0,1,49.68,27.54ZM20.84,56.34a1.94,1.94,0,1,0-1.95,1.92h0A1.94,1.94,0,0,0,20.84,56.34Zm21.28,0a1.93,1.93,0,1,0-1.94,1.92,2,2,0,0,0,1.93-1.92ZM18.13,43H42.41L46,30.41H14.55Z" transform="translate(0)"/></g><g id="_" data-name=" " style="isolation:isolate"><g style="isolation:isolate"><path d="M27,14.62V13.54a4.81,4.81,0,0,1,.6-2.45,7.83,7.83,0,0,1,2.2-2.21,9.59,9.59,0,0,0,2-1.79,2.64,2.64,0,0,0,.49-1.54,1.67,1.67,0,0,0-.71-1.45,3.36,3.36,0,0,0-2-.5,11.28,11.28,0,0,0-5,1.44L23,1.83A14,14,0,0,1,29.92,0a7.37,7.37,0,0,1,4.8,1.45A4.74,4.74,0,0,1,36.5,5.32a5.12,5.12,0,0,1-.73,2.78A10.55,10.55,0,0,1,33,10.74a8.79,8.79,0,0,0-1.78,1.58,2.51,2.51,0,0,0-.37,1.42v.88Zm-.47,5a2.45,2.45,0,0,1,.66-1.86,2.68,2.68,0,0,1,1.92-.63,2.58,2.58,0,0,1,1.88.64,2.48,2.48,0,0,1,.67,1.85,2.44,2.44,0,0,1-.68,1.82,2.52,2.52,0,0,1-1.87.67,2.66,2.66,0,0,1-1.91-.65A2.49,2.49,0,0,1,26.48,19.63Z" transform="translate(0)"/></g></g></g></svg>