<svg id="Layer_1" data-name="Layer 1" xmlns="http://www.w3.org/2000/svg" viewBox="0 0 35.31 32.42"><title>cart</title><path d="M13.51,26.18h-.12l-.12,0a2.33,2.33,0,1,0,.79,0h-.55Z" transform="translate(0 0)" style="fill:none"/><polygon points="30.73 19.25 33.56 9.39 9.62 9.39 12.41 19.25 30.73 19.25" style="fill:none"/><path d="M29.2,26.19h-.68A2.39,2.39,0,0,0,29,30.92a2.32,2.32,0,0,0,1.68-.71,2.39,2.39,0,0,0-1.39-4Z" transform="translate(0 0)" style="fill:none"/><path d="M14,24.68l-1.11-3.93H31.3a.75.75,0,0,0,.72-.54L35.28,8.85a.74.74,0,0,0-.12-.66.75.75,0,0,0-.6-.3H9.19L7.11.55A.74.74,0,0,0,6.39,0H.75A.76.76,0,0,0,0,.75a.76.76,0,0,0,.75.75H5.82l6.62,23.33a3.88,3.88,0,1,0,5,3.7,3.82,3.82,0,0,0-.8-2.34h9.29a3.82,3.82,0,0,0-.79,2.34,3.85,3.85,0,0,0,6.6,2.74,3.82,3.82,0,0,0,1.12-2.74A3.88,3.88,0,0,0,29,24.64h0a3.39,3.39,0,0,0-.47.05H14ZM33.56,9.39l-2.83,9.86H12.41L9.62,9.39ZM15.94,28.53a2.36,2.36,0,1,1-2.67-2.36l.12,0h.67A2.39,2.39,0,0,1,15.94,28.53Zm15.42,0a2.37,2.37,0,0,1-.68,1.67,2.32,2.32,0,0,1-1.68.71,2.39,2.39,0,0,1-.48-4.73h.68l.09,0A2.39,2.39,0,0,1,31.36,28.54Z" transform="translate(0 0)"/></svg>