<svg id="Layer_1" data-name="Layer 1" xmlns="http://www.w3.org/2000/svg" viewBox="0 0 22 22"><title>cart-mobile</title><path id="ic_shopping_cart_24px" data-name="ic shopping cart 24px" d="M6.6,17.6a2.2,2.2,0,1,0,2.2,2.2,2.19,2.19,0,0,0-2.2-2.2ZM0,0V2.2H2.2l4,8.35L4.68,13.24A2.1,2.1,0,0,0,4.4,14.3a2.21,2.21,0,0,0,2.2,2.2H19.8V14.3H7.06A.27.27,0,0,1,6.79,14h0l0-.13,1-1.79H16A2.18,2.18,0,0,0,17.93,11l3.94-7.14a1.11,1.11,0,0,0-1-1.63H4.63L3.6,0ZM17.6,17.6a2.2,2.2,0,1,0,2.2,2.2,2.19,2.19,0,0,0-2.2-2.2Z"/></svg>