<svg id="Layer_1" data-name="Layer 1" xmlns="http://www.w3.org/2000/svg" viewBox="0 0 25.4 21.29"><title>check</title><path d="M11.14,21.46A10.65,10.65,0,1,1,21.78,10.82,10.65,10.65,0,0,1,11.14,21.46Zm0-19.79a9.15,9.15,0,1,0,9.14,9.15A9.15,9.15,0,0,0,11.14,1.67Z" transform="translate(-0.5 -0.17)" style="opacity:0.7"/><path d="M25.61,1.85a1,1,0,0,0-1.41,0L20.43,5.58v0L18.94,7.07h0L17.87,8.13c-2.71,2.7-4.34,4.32-5.3,5.34-.55-1.12-1.48-2.91-3-5.84a1,1,0,1,0-1.78.92c1.21,2.32,3.15,6.07,3.5,6.84l.06.17a1,1,0,0,0,.85.62h.08a1,1,0,0,0,.8-.4c.4-.44,3.3-3.34,6.58-6.6h0l1.62-1.61v0L25.6,3.26A1,1,0,0,0,25.61,1.85Z" transform="translate(-0.5 -0.17)"/></svg>