<svg id="aumain" xmlns="http://www.w3.org/2000/svg" viewBox="0 0 51.9 26.64"><title>delivery</title><circle cx="21.38" cy="21.68" r="3.46" style="fill:none"/><circle cx="42.72" cy="21.68" r="3.46" style="fill:none"/><path d="M51.08,12.63a44.15,44.15,0,0,0-2.79-4.36c-3.37-4.64-6-6.8-9.86-8l-.1,0A20.39,20.39,0,0,0,35.5,0H13a.76.76,0,0,0-.75.75A.76.76,0,0,0,13,1.5H35.48A19.8,19.8,0,0,1,38,1.73c3.48,1.1,5.85,3,9,7.42.47.64.92,1.31,1.35,2H39.68a1.85,1.85,0,0,1-.47,0,2,2,0,0,1-1.29-.74,2,2,0,0,1-.39-1.52V4.74a.75.75,0,0,0-1.5,0v4a3.43,3.43,0,0,0,3,3.83,3.11,3.11,0,0,0,.43,0,2.42,2.42,0,0,0,.38,0h9.5c.15.25.31.5.45.75a4.41,4.41,0,0,1,.62,2.36v3.4A2,2,0,0,1,48.24,21h-.63a4.94,4.94,0,0,0-9.78,0H26.27a4.94,4.94,0,0,0-9.77,0h-.82a1.75,1.75,0,0,1-1.93-1.48v-5.2h7.1a.75.75,0,0,0,0-1.5h-7.1V9.63H27.46a.75.75,0,0,0,0-1.5H13.75v-3h8.4a.75.75,0,0,0,0-1.5H13.74a.75.75,0,0,0-1.48,0H2.51a.75.75,0,1,0,0,1.5h9.74v3H8a.75.75,0,0,0,0,1.5h4.25v3.12H.75a.75.75,0,0,0,0,1.5h11.5v5.28a3.26,3.26,0,0,0,3.18,2.92l.33,0h.74a4.93,4.93,0,0,0,9.76,0H37.84a4.94,4.94,0,0,0,9.76,0h.82a3.51,3.51,0,0,0,3.48-3.3V15.75A5.88,5.88,0,0,0,51.08,12.63ZM21.38,25.14a3.46,3.46,0,1,1,3.46-3.46A3.46,3.46,0,0,1,21.38,25.14Zm21.34,0a3.46,3.46,0,1,1,3.46-3.46A3.46,3.46,0,0,1,42.72,25.14Z" transform="translate(0 0)"/></svg>