<svg id="Layer_1" data-name="Layer 1" xmlns="http://www.w3.org/2000/svg" viewBox="0 0 18.12 20.5"><title>edit</title><polygon points="3.77 11.79 2.68 15.51 6.41 14.43 14.3 6.5 11.61 3.85 3.77 11.79" style="fill:none"/><path d="M15.18,1.82a1.11,1.11,0,0,0-1.55,0l-1,1,2.69,2.65.94-.94a1.1,1.1,0,0,0,0-1.56Z" transform="translate(0 0)" style="fill:none"/><rect y="19" width="16.89" height="1.5"/><path d="M17.36,1.88,16.24.76a2.6,2.6,0,0,0-3.67,0l-10,10.11a.8.8,0,0,0-.19.32L.86,16.41a.75.75,0,0,0,.72,1,.76.76,0,0,0,.21,0L7,15.82a.8.8,0,0,0,.32-.19l10-10.07A2.61,2.61,0,0,0,17.36,1.88ZM6.4,14.43,2.68,15.52l1.09-3.73,7.84-7.93L14.3,6.51ZM16.3,4.5l-.94.94L12.67,2.79l1-1a1.11,1.11,0,0,1,1.55,0L16.3,2.94A1.1,1.1,0,0,1,16.3,4.5Z" transform="translate(0 0)"/></svg>