<svg id="Layer_1" data-name="Layer 1" xmlns="http://www.w3.org/2000/svg" viewBox="0 0 23.75 23.75"><title>language</title><path id="Path_114" data-name="Path 114" d="M20.85,0H2.9A2.81,2.81,0,0,0,0,2.72H0V16.36a2.81,2.81,0,0,0,2.9,2.72H4.8v4a.67.67,0,0,0,.4.58.58.58,0,0,0,.29.05.9.9,0,0,0,.45-.13l6-4.54h8.92a2.81,2.81,0,0,0,2.9-2.72h0V2.72A2.81,2.81,0,0,0,20.85,0ZM22.4,16.33a1.48,1.48,0,0,1-1.53,1.43H11.66a.9.9,0,0,0-.45.13l-5,3.83V18.39a.66.66,0,0,0-.68-.63H2.9a1.48,1.48,0,0,1-1.53-1.43h0V2.77A1.48,1.48,0,0,1,2.9,1.35h18a1.47,1.47,0,0,1,1.53,1.42h0V16.33Z" transform="translate(0 0)"/></svg>