<svg id="Layer_1" data-name="Layer 1" xmlns="http://www.w3.org/2000/svg" viewBox="0 0 35.03 31.86"><title>manufacture</title><g id="Group_151" data-name="Group 151"><path id="Path_183" data-name="Path 183" d="M27.87.8v9.26l-4,2.14V8A.82.82,0,0,0,23,7.18a.6.6,0,0,0-.27.06l-10,5V8a.84.84,0,0,0-.89-.78.66.66,0,0,0-.27.06L.43,12.81a.83.83,0,0,0-.43.73V31.05a.82.82,0,0,0,.8.8H34.23a.82.82,0,0,0,.8-.8V.8a.82.82,0,0,0-.8-.8H28.66a.87.87,0,0,0-.8.8Zm1.59.8h4V30.26H1.59V14l9.56-4.77v4.28a.83.83,0,0,0,.9.77,1.14,1.14,0,0,0,.25-.06l10-5v4.28a.83.83,0,0,0,.91.76.76.76,0,0,0,.26-.06l5.57-3a.81.81,0,0,0,.43-.7ZM5.18,18.71a.82.82,0,0,0-.8.8v4.78a.83.83,0,0,0,.8.8h5.57a.84.84,0,0,0,.8-.8V19.51a.83.83,0,0,0-.8-.8Zm9.55,0a.82.82,0,0,0-.8.8v4.78a.83.83,0,0,0,.8.8H20.3a.83.83,0,0,0,.8-.8V19.51a.82.82,0,0,0-.8-.8Zm9.55,0a.83.83,0,0,0-.8.8v4.78a.84.84,0,0,0,.8.8h5.58a.84.84,0,0,0,.8-.8V19.51a.83.83,0,0,0-.8-.8ZM6,20.3h4v3.19H6Zm9.56,0h4v3.19h-4Zm9.55,0h4v3.19h-4Z" transform="translate(0 0)"/></g></svg>