<svg id="Layer_1" data-name="Layer 1" xmlns="http://www.w3.org/2000/svg" viewBox="0 0 240 68.52"><title>mrlens</title><g id="main"><path d="M120,.74C186.09.74,240,16.14,240,35S186.09,69.26,120,69.26,0,53.88,0,35,53.91.74,120,.74m-.72,3C181,2.27,231.71,15.16,232.11,32.4S182.47,64.89,120.72,66.31,8.38,54.84,7.89,37.6,57.53,5.11,119.28,3.69" transform="translate(0 -0.74)" style="fill:#00559b;fill-rule:evenodd"/><path d="M115.88,48.54H110.4l-1.91-22.17L102,48.54H98.84L92.31,26l-2,22.59H85.1L89,21.13H94.8l5.83,20.1L106,21.13h6Zm14-20.73-.92-.26a1.1,1.1,0,0,0-.56-.11,3.59,3.59,0,0,0-3,1.78,9.84,9.84,0,0,0-1.51,4V28.08H119.2V48.55H124V37.68a4.44,4.44,0,0,1,1-3,3.09,3.09,0,0,1,2.34-1.1,3.5,3.5,0,0,1,1,.15,9.41,9.41,0,0,1,1.1.45l.6-6.33m17.21,16.05h-8.93V21.18h-5.43V48.69h14.29ZM169,39.76A14.82,14.82,0,0,0,167,31.9a8.67,8.67,0,0,0-7.87-3.82A10.59,10.59,0,0,0,151,31.2a10.25,10.25,0,0,0-2.56,7.25,9.89,9.89,0,0,0,9.73,10.07c.24,0,.49,0,.74,0a11.1,11.1,0,0,0,9.34-4.87l-4.82-2.11a4.51,4.51,0,0,1-1.86,1.91,5.21,5.21,0,0,1-2.56.65,4.5,4.5,0,0,1-3.35-1.21A5.18,5.18,0,0,1,154,39.71h14.74M154,36.36a5,5,0,0,1,1.68-3,4.17,4.17,0,0,1,3.06-1.25,2.08,2.08,0,0,1,.61,0,4.56,4.56,0,0,1,2.71,1.45,5.26,5.26,0,0,1,1.31,2.72Zm36.72-3.79a4.59,4.59,0,0,0-1.91-3.52,6.7,6.7,0,0,0-4.12-1.56,6,6,0,0,0-3.47,1.16A6.28,6.28,0,0,0,179,31.57V28.08h-5.48V48.54H179V36a3.74,3.74,0,0,1,1.11-2.41,3.26,3.26,0,0,1,2.36-1.31,3.05,3.05,0,0,1,1.76.81,2.29,2.29,0,0,1,1,1.55V48.54h5.52ZM209,42.22a5.25,5.25,0,0,0-2.51-4.57,26.84,26.84,0,0,0-4.52-2c-1.68-.66-2.46-1.41-2.46-2.27a1.66,1.66,0,0,1,.7-1.35,2.05,2.05,0,0,1,1.51-.55,3.33,3.33,0,0,1,2.06.65,2.52,2.52,0,0,1,1.15,1.67L209,31.73a7.63,7.63,0,0,0-7-4.12,7.83,7.83,0,0,0-5,1.68,5.44,5.44,0,0,0-2.11,4.52c0,2.51,1.51,4.42,4.57,5.68S204,41.85,204,42.71a1.77,1.77,0,0,1-.66,1.45,2.57,2.57,0,0,1-1.67.51,3.37,3.37,0,0,1-2.11-.76,3.11,3.11,0,0,1-1.26-1.81l-4.17,2.47a7.41,7.41,0,0,0,3.35,3.06,10.09,10.09,0,0,0,4.42,1,7.83,7.83,0,0,0,5-1.68A6,6,0,0,0,209,42.14" transform="translate(0 -0.74)" style="fill:#00559b;fill-rule:evenodd"/><path d="M69.79,38.87C67.61,45.57,60,49.12,50.91,49.12c-9.56,0-18.09-3.52-19.68-10.8a12.55,12.55,0,0,0-.15,3.57C31.71,50.11,40,57.8,50.71,57.8S69.26,50.31,70,42a10.53,10.53,0,0,0-.2-3.12" transform="translate(0 -0.74)" style="fill:#ef7814"/><path d="M41,30.8c.61-7.85,4-14.58,10.06-15.42a13.61,13.61,0,0,0-3-.3c-7,.08-13.4,6.25-14.12,15S38.9,45.67,45.72,46.81a8.94,8.94,0,0,0,2.53,0c-5.3-2.18-7.74-8.63-7.19-16" transform="translate(0 -0.74)" style="fill:#ef7814"/><path d="M75,27.55c-.74-6.71-7.74-12.64-16.52-12.28S43.57,22,43.22,28.85a8.84,8.84,0,0,0,.34,2.45c1.59-5.56,7.69-8.73,15.07-9,7.9-.3,14.93,2.28,16.51,8.17A10.37,10.37,0,0,0,75,27.55" transform="translate(0 -0.74)" style="fill:#ef7814"/><path d="M65.34,25.35c1.54,4.31-1,9.21-5.8,12.83S48.73,43.53,45,40.36a6.85,6.85,0,0,0,1.45,1.93,12.56,12.56,0,0,0,16.5.48c5.54-4.25,6.7-11.24,3.77-15.91a6.81,6.81,0,0,0-1.34-1.54" transform="translate(0 -0.74)" style="fill:#ef7814"/><path d="M54.73,37.35A5.7,5.7,0,1,0,49,31.65h0a5.72,5.72,0,0,0,5.69,5.7" transform="translate(0 -0.74)" style="fill:#00559b;fill-rule:evenodd"/></g></svg>