<svg id="Layer_1" data-name="Layer 1" xmlns="http://www.w3.org/2000/svg" viewBox="0 0 37.37 33.95"><title>order-review</title><path d="M15.77,18.83l-.31-.23a1.35,1.35,0,0,0-1-.4h0a1.35,1.35,0,0,0-1,.4l-5,5a1.39,1.39,0,0,0,0,1.9l.35.26a1.38,1.38,0,0,0,1.94,0l5-5A1.39,1.39,0,0,0,15.77,18.83Z" transform="translate(0.03 0.02)" style="fill:none"/><path d="M10.48,17.38,10.13,17a1.35,1.35,0,0,0-.84-.3,1.38,1.38,0,0,0-1,.41L5.16,20.29a1.4,1.4,0,0,0,0,1.94l.24.25a1.39,1.39,0,0,0,1.93,0l3.15-3.14A1.4,1.4,0,0,0,10.48,17.38Z" transform="translate(0.03 0.02)" style="fill:none"/><path d="M18.23,24.49a1.35,1.35,0,0,0-.4-1l-.24-.24.53-.53-.53.53a1.38,1.38,0,0,0-1.94,0l-3.44,3.44a1.38,1.38,0,0,0,0,1.94l.24.24a1.39,1.39,0,0,0,1.94,0l3.44-3.43A1.35,1.35,0,0,0,18.23,24.49Z" transform="translate(0.03 0.02)" style="fill:none"/><path d="M19.46,27.59a.41.41,0,0,1-.07-.11,1.33,1.33,0,0,0-.55-.12,1.36,1.36,0,0,0-1,.4l-2.12,2.11a1.4,1.4,0,0,0,0,1.95l.23.23a1.39,1.39,0,0,0,1.94,0L20,29.94a1.39,1.39,0,0,0,.3-1.46Z" transform="translate(0.03 0.02)" style="fill:none"/><path d="M32.65,5.11a13.68,13.68,0,0,0-3.31-2.66c-1-.57-5.91-2.24-9.11.89L18.48,5.08a.13.13,0,0,1,0,0l0,0-5,5c-.31.31-.21.41-.08.55a3.44,3.44,0,0,0,4.22-.31L19.25,8.7c1.51-1.37,3.19-.86,4.68-.41,1.69.51,3.29,1,5.17-.48A.75.75,0,1,1,30,9c-2.48,2-4.72,1.28-6.53.73-1.5-.45-2.39-.67-3.21.07l-1.7,1.68a4.9,4.9,0,0,1-6.35.3,1.77,1.77,0,0,1,.09-2.66l4.53-4.52-1-1c-3.66-3.57-8.51-2-11.46,1S0,12.17,3.52,15.68l2.09,2,1.64-1.64a2.86,2.86,0,0,1,4,0l1.3,1.28h-.4a3.58,3.58,0,0,1,.11.35l.16-.16a2.85,2.85,0,0,1,2-.84h0a2.86,2.86,0,0,1,1.61.49l.09,0,.65.62a2.91,2.91,0,0,1,.33,3.66,2.9,2.9,0,0,1,1.48.79l.24.24a2.87,2.87,0,0,1,.47,3.44,2.81,2.81,0,0,1,1.49.78l.26.27a2.7,2.7,0,0,1,.45.63l1.24,1.25A1.53,1.53,0,0,0,25,28.74a1.33,1.33,0,0,0-.1-2.07.77.77,0,0,1-.17-.27l-3.88-4a.75.75,0,1,1,1.08-1l4.55,4.69a1.58,1.58,0,0,0,2.2-.15,1.36,1.36,0,0,0-.07-2.1l-4.47-4.6a.75.75,0,0,1,1.08-1l.21.22a.49.49,0,0,1,.15.1l4.12,4.28c.89.92,1.59.51,1.93.18a1.61,1.61,0,0,0,.18-2.25l-8.85-9.28a.75.75,0,1,1,1.08-1l7.93,8.32,1.93-1.93C37.56,13.1,35.52,8.2,32.65,5.11Z" transform="translate(0.03 0.02)" style="fill:none"/><path d="M33.75,4.1a14.74,14.74,0,0,0-3.67-2.95c-2-1.13-7.35-2.35-10.9,1.12L17.91,3.54l-1-1c-4.2-4.09-10-2.59-13.57,1C0,6.93-1.74,12.5,2.47,16.75l2.08,2-.46.45a2.92,2.92,0,0,0,0,4.05l.24.26a2.92,2.92,0,0,0,2.31.8,2.92,2.92,0,0,0,.81,2.25l.38.29a2.87,2.87,0,0,0,2.48.73,2.87,2.87,0,0,0,.84,2.11l.24.24a2.88,2.88,0,0,0,2.47.79,2.94,2.94,0,0,0,.83,2.12l.24.25a2.91,2.91,0,0,0,4.06,0L21.11,31a2.78,2.78,0,0,0,.65-1.09,2.79,2.79,0,0,0,2,.83A3.29,3.29,0,0,0,26,29.81a2.84,2.84,0,0,0,.89-1.9A3.31,3.31,0,0,0,29.67,27a2.93,2.93,0,0,0,.9-2.16h.16a2.72,2.72,0,0,0,1.89-.8,3.11,3.11,0,0,0,.32-4.23l2-2C39.09,13.7,37.34,8,33.75,4.1ZM7.33,22.46a1.39,1.39,0,0,1-1.93,0l-.24-.25a1.4,1.4,0,0,1,0-1.94l3.15-3.15a1.38,1.38,0,0,1,1-.41,1.35,1.35,0,0,1,.84.3l.35.35a1.4,1.4,0,0,1,0,1.94Zm3.45,3.3a1.38,1.38,0,0,1-1.94,0l-.35-.26a1.39,1.39,0,0,1,0-1.9l5-5a1.35,1.35,0,0,1,1-.4h0a1.35,1.35,0,0,1,1,.4l.31.23a1.39,1.39,0,0,1,0,1.94Zm3.61,3.13a1.39,1.39,0,0,1-1.94,0l-.24-.24a1.38,1.38,0,0,1,0-1.94l3.44-3.44a1.38,1.38,0,0,1,1.94,0l.53-.53-.53.53.24.24a1.38,1.38,0,0,1,0,1.94ZM20,29.94,17.93,32a1.39,1.39,0,0,1-1.94,0l-.23-.23a1.4,1.4,0,0,1,0-1.95l2.12-2.11a1.36,1.36,0,0,1,1-.4,1.33,1.33,0,0,1,.55.12.41.41,0,0,0,.07.11l.88.89A1.39,1.39,0,0,1,20,29.94ZM31.92,18.69,24,10.37a.75.75,0,1,0-1.08,1l8.85,9.28a1.61,1.61,0,0,1-.18,2.25c-.34.33-1,.74-1.93-.18l-4.12-4.28a.49.49,0,0,0-.15-.1l-.21-.22a.75.75,0,0,0-1.08,1l4.47,4.6a1.36,1.36,0,0,1,.07,2.1,1.58,1.58,0,0,1-2.2.15l-4.55-4.69a.75.75,0,1,0-1.08,1l3.88,4a.77.77,0,0,0,.17.27,1.33,1.33,0,0,1,.1,2.07,1.53,1.53,0,0,1-2.15.09l-1.24-1.25a2.7,2.7,0,0,0-.45-.63l-.26-.27a2.81,2.81,0,0,0-1.49-.78,2.87,2.87,0,0,0-.47-3.44l-.24-.24a2.9,2.9,0,0,0-1.48-.79,2.91,2.91,0,0,0-.33-3.66l-.65-.62-.09,0a2.86,2.86,0,0,0-1.61-.49h0a2.85,2.85,0,0,0-2,.84l-.16.16a3.58,3.58,0,0,0-.11-.35h.4l-1.3-1.28a2.86,2.86,0,0,0-4,0L5.61,17.72l-2.09-2c-3.48-3.51-2-8.21.86-11.09s7.8-4.56,11.46-1l1,1L12.32,9.11a1.77,1.77,0,0,0-.09,2.66,4.9,4.9,0,0,0,6.35-.3l1.7-1.68c.82-.74,1.71-.52,3.21-.07C25.3,10.27,27.54,11,30,9a.75.75,0,1,0-.92-1.18c-1.88,1.48-3.48,1-5.17.48-1.49-.45-3.17-1-4.68.41l-1.73,1.71a3.44,3.44,0,0,1-4.22.31c-.13-.14-.23-.24.08-.55l5-5,0,0a.13.13,0,0,0,0,0l1.75-1.74c3.2-3.13,8.08-1.46,9.11-.89a13.68,13.68,0,0,1,3.31,2.66c2.87,3.09,4.91,8,1.2,11.65Z" transform="translate(0.03 0.02)"/></svg>