<svg id="bfLayer_2" data-name="bfLayer 2" xmlns="http://www.w3.org/2000/svg" viewBox="0 0 41.5 29.26"><title>payment</title><rect x="1.5" y="8.11" width="38.5" height="3.62" style="fill:none"/><path d="M40,6.61V3.9a2.41,2.41,0,0,0-2.4-2.4H3.9A2.41,2.41,0,0,0,1.5,3.9V6.61Z" transform="translate(0 0)" style="fill:none"/><path d="M1.5,13.23V25.36a2.41,2.41,0,0,0,2.4,2.4H37.6a2.41,2.41,0,0,0,2.4-2.4V13.23Zm7.25,11.2H5.17a.75.75,0,0,1,0-1.5H8.75a.75.75,0,0,1,0,1.5Zm8.76,0H13.08a.75.75,0,1,1,0-1.5h4.43a.75.75,0,0,1,0,1.5Z" transform="translate(0 0)" style="fill:none"/><path d="M37.6,0H3.9A3.92,3.92,0,0,0,0,3.9V25.36a3.92,3.92,0,0,0,3.9,3.9H37.6a3.92,3.92,0,0,0,3.9-3.9V3.9A3.92,3.92,0,0,0,37.6,0ZM3.9,1.5H37.6A2.41,2.41,0,0,1,40,3.9V6.61H1.5V3.9A2.41,2.41,0,0,1,3.9,1.5ZM40,11.73H1.5V8.11H40Zm-2.4,16H3.9a2.41,2.41,0,0,1-2.4-2.4V13.23H40V25.36A2.41,2.41,0,0,1,37.6,27.76Z" transform="translate(0 0)"/><path d="M17.51,22.93H13.08a.75.75,0,1,0,0,1.5h4.43a.75.75,0,0,0,0-1.5Z" transform="translate(0 0)"/><path d="M8.75,22.93H5.17a.75.75,0,0,0,0,1.5H8.75a.75.75,0,0,0,0-1.5Z" transform="translate(0 0)"/></svg>