<svg id="Layer_1" data-name="Layer 1" xmlns="http://www.w3.org/2000/svg" viewBox="0 0 19.46 20.26"><title>plus</title><polygon points="15.87 9.4 10.65 9.4 10.65 4.16 9.15 4.16 9.15 9.4 3.89 9.4 3.89 10.9 9.15 10.9 9.15 16.14 10.65 16.14 10.65 10.9 15.87 10.9 15.87 9.4"/><ellipse cx="9.73" cy="10.13" rx="9.73" ry="10.13" style="fill:none"/><path d="M9.73,20.26A9.94,9.94,0,0,1,0,10.13,9.94,9.94,0,0,1,9.73,0a10,10,0,0,1,9.73,10.13A10,10,0,0,1,9.73,20.26ZM9.73,1A9,9,0,0,0,1,10.13a9,9,0,0,0,8.73,9.13,9,9,0,0,0,8.73-9.13A9,9,0,0,0,9.73,1Z"/></svg>