<svg id="Layer_1" data-name="Layer 1" xmlns="http://www.w3.org/2000/svg" viewBox="0 0 35.69 35.72"><title>reorder</title><path d="M16,25.23H15.9l-.13,0a1.2,1.2,0,0,0-1,1.17,1.2,1.2,0,1,0,1.54-1.15H16Z" transform="translate(0.05 -0.01)" style="fill:none"/><polygon points="26.66 20.25 28.23 14.64 13.96 14.64 15.54 20.25 26.66 20.25" style="fill:none"/><path d="M25.91,25.22h-.58a1.24,1.24,0,0,0-.9,1.18,1.23,1.23,0,1,0,2.45,0A1.22,1.22,0,0,0,25.91,25.22Z" transform="translate(0.05 -0.01)" style="fill:none"/><path d="M16.46,23.71l-.55-1.95H27.17a.74.74,0,0,0,.72-.55l2-7.11a.72.72,0,0,0-.12-.65.75.75,0,0,0-.6-.3H13.48L12.25,8.79a.74.74,0,0,0-.72-.55H8a.75.75,0,0,0,0,1.5h3l3.21,11.38a.9.9,0,0,0,.06.22L15,23.88a2.71,2.71,0,1,0,3.76,2.5,2.77,2.77,0,0,0-.26-1.15h4.76a2.63,2.63,0,0,0-.28,1.18,2.73,2.73,0,1,0,2.77-2.75h0a2.9,2.9,0,0,0-.6.07H16.6Zm11.72-9.06L26.6,20.26H15.49l-1.58-5.61Zm-11,11.73a1.2,1.2,0,1,1-2.4,0,1.2,1.2,0,0,1,1-1.17l.13,0h.45A1.21,1.21,0,0,1,17.21,26.38Zm8.47,1.28a1.25,1.25,0,0,1-1.25-1.25,1.24,1.24,0,0,1,.9-1.18h.58a1.22,1.22,0,0,1,1,1.19A1.25,1.25,0,0,1,25.68,27.66Z" transform="translate(0.05 -0.01)"/><path d="M34.93,18.07a.76.76,0,0,0-.79.71A16.36,16.36,0,1,1,28.38,5.39l-3.46-.15a.77.77,0,0,0-.78.72.75.75,0,0,0,.72.78l5.6.24a.79.79,0,0,0,.61-.27.76.76,0,0,0,.15-.65L30.07,1a.75.75,0,1,0-1.46.34l.64,2.84A17.86,17.86,0,1,0,16.82,35.71l1,0A17.88,17.88,0,0,0,35.64,18.86.76.76,0,0,0,34.93,18.07Z" transform="translate(0.05 -0.01)"/></svg>