<svg id="Layer_1" data-name="Layer 1" xmlns="http://www.w3.org/2000/svg" viewBox="0 0 30.8 30.14"><title>Sale icon</title><path d="M18.94,17.52c0-.75.45-1.41,1-1.41s1,.66,1,1.41-.45,1.41-1,1.41S18.94,18.27,18.94,17.52ZM10.88,14c.51,0,1-.65,1-1.41s-.45-1.41-1-1.41-1,.66-1,1.41.47,1.41,1,1.41ZM.69,13.53,1.28,13a2,2,0,0,0,.53-2.29L1.5,10A2,2,0,0,1,2.56,7.38h0l.23-.08.76-.21A2,2,0,0,0,5,5.27l.05-.79a2,2,0,0,1,2-1.9,2.07,2.07,0,0,1,.35,0l.78.14a2,2,0,0,0,2.11-1L10.69,1A2,2,0,0,1,13.4.25h0l.23.14.65.46a2,2,0,0,0,2.34,0l.65-.46a2,2,0,0,1,2.8.45c.05.08.1.15.14.23l.38.69a2,2,0,0,0,1.76,1.05,1.84,1.84,0,0,0,.33,0l.75-.12a2,2,0,0,1,.34,0,2,2,0,0,1,2,1.91l0,.79a2,2,0,0,0,1.45,1.83l.76.21a2,2,0,0,1,1.39,2.47h0a1.55,1.55,0,0,1-.08.23l-.31.73a2,2,0,0,0,.52,2.29l.58.52a2,2,0,0,1,.18,2.83h0a1.45,1.45,0,0,1-.18.17l-.59.52A2,2,0,0,0,29,19.43l.3.73a2,2,0,0,1-1.07,2.62h0l-.23.08-.76.22a2,2,0,0,0-1.49,1.79l0,.79a2,2,0,0,1-2,1.9,1.34,1.34,0,0,1-.35,0l-.78-.12a2,2,0,0,0-2.11,1l-.37.69a2,2,0,0,1-2.72.79h0a1.64,1.64,0,0,1-.22-.14l-.66-.46a2,2,0,0,0-2.33,0l-.66.46a2,2,0,0,1-2.79-.44h0a1.76,1.76,0,0,1-.14-.23l-.38-.69a2,2,0,0,0-2.1-1l-.73.13a2.07,2.07,0,0,1-.35,0A2,2,0,0,1,5,25.6l0-.79A2,2,0,0,0,3.52,23l-.76-.22a2,2,0,0,1-1.4-2.46l.09-.24.31-.73a2,2,0,0,0-.52-2.28l-.59-.53A2,2,0,0,1,.52,13.7h0l.16-.16Zm16.17,4a3.3,3.3,0,0,0,3,3.49,3.28,3.28,0,0,0,3-3.49,3.28,3.28,0,0,0-3-3.49,3.28,3.28,0,0,0-3,3.49ZM11.47,20a1,1,0,0,0,.23,1.45,1.05,1.05,0,0,0,1.46-.23h0a.94.94,0,0,0,.12-.22l6-10.75A1,1,0,0,0,17.62,9a2.39,2.39,0,0,0-.12.22ZM7.83,12.62a3.3,3.3,0,0,0,3.05,3.49,3.29,3.29,0,0,0,3-3.49,3.29,3.29,0,0,0-3.05-3.49A3.3,3.3,0,0,0,7.83,12.62Z" transform="translate(0 0)"/></svg>