<svg id="Layer_1" data-name="Layer 1" xmlns="http://www.w3.org/2000/svg" viewBox="0 0 57.11 41.92"><title>secure</title><g id="Secure_payment" data-name="Secure payment"><ellipse id="Ellipse_7" data-name="Ellipse 7" cx="28.55" cy="20.96" rx="27.76" ry="20.17" style="fill:#fff;stroke:#f19c01;stroke-miterlimit:10;stroke-width:1.5800000429153442px"/><path id="Path_109" data-name="Path 109" d="M42,22.22a7.27,7.27,0,0,0-.7-.95l-.56-.87-.52-.74a.25.25,0,0,1,0-.17v-.87c0-.17,0-.17.17-.17h4.56A8.51,8.51,0,0,0,42,22.22Z" style="fill:#f19c01"/><path id="Path_110" data-name="Path 110" d="M32.5,22.61l-.13-.13a1.28,1.28,0,0,1-.08-1.78,1.47,1.47,0,0,1,1.56-.35s.13,0,.17,0h1c.08,0,.13,0,.13.13s0,.17-.13.17h-.39l-.18,0,.05.09a1.31,1.31,0,0,1-.3,1.78,2.26,2.26,0,0,1-.44.22,2.55,2.55,0,0,1-.78,0,.34.34,0,0,0-.35.3.27.27,0,0,0,.18.33h.78a6.35,6.35,0,0,1,.87.05.94.94,0,0,1,.87,1,.13.13,0,0,1,0,.06.61.61,0,0,1-.13.39,1.53,1.53,0,0,1-.78.7,2.87,2.87,0,0,1-2.08,0,.75.75,0,0,1-.61-.7,1.38,1.38,0,0,1,.09-.39,1.41,1.41,0,0,1,.48-.52l.09,0-.09,0a.64.64,0,0,1-.22-.87h0c0-.05,0-.05.09-.09a2,2,0,0,1,.39-.43ZM33.33,24H33a.43.43,0,0,0-.43.22,1.26,1.26,0,0,0-.22.43.6.6,0,0,0,.39.74,1.57,1.57,0,0,0,.91.09,1.06,1.06,0,0,0,.61-.22.8.8,0,0,0,.3-.74.57.57,0,0,0-.57-.47,3.45,3.45,0,0,1-.64-.05ZM34,21.57c0-.13,0-.3,0-.43a.62.62,0,0,0-.52-.52.57.57,0,0,0-.65.39,1.48,1.48,0,0,0,0,.86.87.87,0,0,0,.26.44.6.6,0,0,0,.82,0c.05,0,.05-.08.09-.13a1.77,1.77,0,0,0,.09-.56Z"/><path id="Path_111" data-name="Path 111" d="M45.56,19.44v4.21a.11.11,0,0,1-.1.13H42.78c-.13,0-.17,0-.13-.13a11.44,11.44,0,0,1,1-2.16,9,9,0,0,1,1.26-1.61A5.7,5.7,0,0,0,45.56,19.44Z" style="fill:#f19c01"/><path id="Path_112" data-name="Path 112" d="M15.54,23.48l-.35-.87c-.08-.22-.13-.39-.21-.61s-.09-.13-.18-.13H13.28c-.08,0-.17.05-.17.13-.17.48-.35.91-.56,1.39-.05.13-.05.13.08.13s.3,0,.44,0,.08.09.08.18,0,.13-.13.13H11.46a.12.12,0,0,1-.13-.1v0c0-.09,0-.18.13-.18s.35,0,.48,0,.13,0,.17-.13l1.69-4.25.26-.65c0-.09.09-.13.18-.13s.13,0,.17.13c.35.91.7,1.86,1,2.78l.78,2.08a.15.15,0,0,0,.13.13c.18,0,.35,0,.48,0s.09.13.09.22-.05.08-.13.08H14.89a.11.11,0,0,1-.13-.09v0c0-.08,0-.17.09-.17l.47,0Zm-1.43-3.9h0l-.78,2H14.8Zm24.64,2.51a2.17,2.17,0,0,1-.26,1,1.56,1.56,0,0,1-1.34.83,1.83,1.83,0,0,1-.87-.09,1.53,1.53,0,0,1-1-1.3,2.15,2.15,0,0,1,.13-1.3,1.66,1.66,0,0,1,1.56-1,2.81,2.81,0,0,1,.82.13,1.49,1.49,0,0,1,1,1.13,2.59,2.59,0,0,1,0,.56Zm-.69.18A.58.58,0,0,1,38,22a1.75,1.75,0,0,0-.34-1,.94.94,0,0,0-1.3-.13,1.7,1.7,0,0,0-.26.34,2.23,2.23,0,0,0-.09,1.3,1.51,1.51,0,0,0,.35.83,1,1,0,0,0,1,.3.74.74,0,0,0,.61-.61c0-.26.08-.48.12-.74Zm-15.79-.22h-1a.11.11,0,0,0-.13.1,0,0,0,0,0,0,0,1.6,1.6,0,0,0,.47,1.09,1.26,1.26,0,0,0,1.17.21c.18,0,.3-.13.48-.17s.13,0,.18,0,.13.13,0,.22a3.6,3.6,0,0,1-.7.3,2,2,0,0,1-1.52-.09,1.39,1.39,0,0,1-.73-1.08,2.3,2.3,0,0,1,.17-1.44,1.67,1.67,0,0,1,1.69-1,1.12,1.12,0,0,1,1,.74,1.83,1.83,0,0,1,.09.87c0,.08-.09.08-.13.08Zm-.35-.3h.69a.11.11,0,0,0,.13-.1v0c0-.13,0-.3,0-.43a.68.68,0,0,0-.43-.52.82.82,0,0,0-.83.21,1.59,1.59,0,0,0-.3.78c0,.09.05.09.09.09ZM20,21v.39c0,.09,0,.09-.09.09-.22,0-.26,0-.26-.18a1.38,1.38,0,0,0-.09-.39.12.12,0,0,0,0-.08,1.12,1.12,0,0,0-1.17,0,1.06,1.06,0,0,0-.48.73,1.89,1.89,0,0,0,.26,1.52,1.05,1.05,0,0,0,1.09.43,1.68,1.68,0,0,0,.69-.21.07.07,0,0,1,.11,0l0,0s.13.13,0,.21a2,2,0,0,1-2.25.18,1.68,1.68,0,0,1-.7-1.09,2.08,2.08,0,0,1,.3-1.52,1.76,1.76,0,0,1,1.43-.78,3.71,3.71,0,0,1,1,.13c.09,0,.13.09.13.17V21Zm5.2.13.39-.43a.79.79,0,0,1,.57-.35.74.74,0,0,1,.52.22s0,.08,0,.08a4.45,4.45,0,0,1-.43.61l-.13-.09a.53.53,0,0,0-.7.05,2.13,2.13,0,0,1-.3.3.25.25,0,0,0,0,.17v1.73a.12.12,0,0,0,.1.14h0c.17,0,.35,0,.52,0s.09.09.13.17,0,.13-.13.13H24a.1.1,0,0,1-.13-.1,0,0,0,0,1,0,0c0-.09,0-.17.13-.17s.26,0,.39,0,.13-.05.13-.14V21c0-.14-.05-.18-.18-.18s-.26,0-.43,0-.09,0-.09-.09,0-.13.09-.17L25,20.35a.11.11,0,0,1,.13.1v.47c.09,0,.09.09.09.17Zm2.26,1V21c0-.13,0-.17-.13-.13H27s-.09,0-.09,0,0-.09.05-.09l.86-.87L28,19.7c.05,0,.13,0,.13.09v.56c0,.13.05.13.13.13h.87a.13.13,0,0,1,.13.1v0c0,.25,0,.25-.26.25h-.78a.13.13,0,0,0-.13.1v2.12a.44.44,0,0,0,.41.47h.2a4.09,4.09,0,0,0,.48-.13c.08,0,.13-.08.17,0s.13.18,0,.22a1.78,1.78,0,0,1-1,.35.84.84,0,0,1-.61-.22.73.73,0,0,1-.22-.52,10.57,10.57,0,0,1,0-1.13Zm3.47-.22v1.44c0,.13,0,.17.17.17s.22,0,.35,0,.09.09.09.18,0,.13-.09.08H29.77c-.09,0-.09,0-.09-.08s0-.18.09-.18.26,0,.39,0,.13,0,.13-.13V20.92a.12.12,0,0,0-.1-.13h0l-.43,0c-.09,0-.09-.05-.09-.09s0-.18.09-.18c.34,0,.69-.13,1-.17.17,0,.17,0,.17.17Z"/><path id="Path_113" data-name="Path 113" d="M41.57,23.83H40.31c-.13,0-.13,0-.13-.13V22a.15.15,0,0,1,0-.13Z" style="fill:#f19c01"/><path id="Path_114" data-name="Path 114" d="M30.55,18.49a.43.43,0,0,1,.43.39v0a.43.43,0,1,1-.86,0,.43.43,0,0,1,.43-.43Z"/><g id="approved_by" data-name="approved by" style="isolation:isolate"><text transform="translate(17.34 13.02)" style="isolation:isolate;font-size:1px;font-family:Verdana-Bold, Verdana;font-weight:700">approved by</text></g><g id="V" style="isolation:isolate"><text transform="translate(7.24 29.95) rotate(44.59)" style="isolation:isolate;font-size:0.9998739957809448px;font-family:Verdana-Bold, Verdana;font-weight:700">V</text></g><g id="a" style="isolation:isolate"><text transform="matrix(0.82, 0.58, -0.58, 0.82, 9.92, 32.54)" style="isolation:isolate;font-size:0.9993923306465149px;font-family:Verdana-Bold, Verdana;font-weight:700">a</text></g><g id="l" style="isolation:isolate"><text transform="matrix(0.87, 0.49, -0.49, 0.87, 12.56, 34.35)" style="isolation:isolate;font-size:1.000352382659912px;font-family:Verdana-Bold, Verdana;font-weight:700">l</text></g><g id="i" style="isolation:isolate"><text transform="translate(14.02 35.17) rotate(25.82)" style="isolation:isolate;font-size:1px;font-family:Verdana-Bold, Verdana;font-weight:700">i</text></g><g id="d" style="isolation:isolate"><text transform="translate(15.54 35.94) rotate(20.42)" style="isolation:isolate;font-size:1px;font-family:Verdana-Bold, Verdana;font-weight:700">d</text></g><g id="a-2" style="isolation:isolate"><text transform="matrix(0.97, 0.25, -0.25, 0.97, 18.68, 37.11)" style="isolation:isolate;font-size:1px;font-family:Verdana-Bold, Verdana;font-weight:700">a</text></g><g id="t" style="isolation:isolate"><text transform="matrix(0.99, 0.17, -0.17, 0.99, 21.76, 37.88)" style="isolation:isolate;font-size:1px;font-family:Verdana-Bold, Verdana;font-weight:700">t</text></g><g id="i-2" style="isolation:isolate"><text transform="matrix(0.99, 0.11, -0.11, 0.99, 23.89, 38.2)" style="isolation:isolate;font-size:1.0000680685043335px;font-family:Verdana-Bold, Verdana;font-weight:700">i</text></g><g id="o" style="isolation:isolate"><text transform="matrix(1, 0.04, -0.04, 1, 25.6, 38.47)" style="isolation:isolate;font-size:0.9998005032539368px;font-family:Verdana-Bold, Verdana;font-weight:700">o</text></g><g id="n" style="isolation:isolate"><text transform="translate(28.86 38.58) rotate(-3.15)" style="isolation:isolate;font-size:0.9995144009590149px;font-family:Verdana-Bold, Verdana;font-weight:700">n</text></g><g id="p" style="isolation:isolate"><text transform="translate(33.9 38.18) rotate(-11.74)" style="isolation:isolate;font-size:1px;font-family:Verdana-Bold, Verdana;font-weight:700">p</text></g><g id="a-3" style="isolation:isolate"><text transform="matrix(0.95, -0.3, 0.3, 0.95, 37.18, 37.47)" style="isolation:isolate;font-size:1px;font-family:Verdana-Bold, Verdana;font-weight:700">a</text></g><g id="s" style="isolation:isolate"><text transform="translate(40.23 36.48) rotate(-23.72)" style="isolation:isolate;font-size:1px;font-family:Verdana-Bold, Verdana;font-weight:700">s</text></g><g id="s-2" style="isolation:isolate"><text transform="matrix(0.87, -0.5, 0.5, 0.87, 42.85, 35.32)" style="isolation:isolate;font-size:1px;font-family:Verdana-Bold, Verdana;font-weight:700">s</text></g><g id="e" style="isolation:isolate"><text transform="translate(45.38 33.87) rotate(-37.32)" style="isolation:isolate;font-size:1px;font-family:Verdana-Bold, Verdana;font-weight:700">e</text></g><g id="d-2" style="isolation:isolate"><text transform="translate(47.97 31.9) rotate(-46.62)" style="isolation:isolate;font-size:1.000248908996582px;font-family:Verdana-Bold, Verdana;font-weight:700">d</text></g><ellipse id="Ellipse_8" data-name="Ellipse 8" cx="28.55" cy="20.96" rx="19.26" ry="12.75" style="fill:none;stroke:#f19c01;stroke-miterlimit:10;stroke-width:1.5800000429153442px"/><g id="P-2" style="isolation:isolate"><text transform="translate(12.65 11.51) rotate(-30.19)" style="isolation:isolate;font-size:3px;font-family:Verdana-Bold, Verdana;font-weight:700">P</text></g><g id="C" style="isolation:isolate"><text transform="translate(17.48 8.88) rotate(-17.52)" style="isolation:isolate;font-size:3px;font-family:Verdana-Bold, Verdana;font-weight:700">C</text></g><g id="I-3" style="isolation:isolate"><text transform="matrix(0.99, -0.13, 0.13, 0.99, 22.74, 7.4)" style="isolation:isolate;font-size:1px;font-family:Verdana-Bold, Verdana;font-weight:700">I</text></g><g id="D-3" style="isolation:isolate"><text transform="matrix(0.99, 0.14, -0.14, 0.99, 30.47, 6.88)" style="isolation:isolate;font-size:3px;font-family:Verdana-Bold, Verdana;font-weight:700">D</text></g><g id="S-3" style="isolation:isolate"><text transform="translate(36.49 7.85) rotate(19.32)" style="isolation:isolate;font-size:2.000696897506714px;font-family:Verdana-Bold, Verdana;font-weight:700">S</text></g><g id="S-4" style="isolation:isolate"><text transform="matrix(0.84, 0.54, -0.54, 0.84, 41.52, 9.72)" style="isolation:isolate;font-size:3px;font-family:Verdana-Bold, Verdana;font-weight:700">S</text></g><path id="Path_115" data-name="Path 115" d="M7.25,12.37l.22,1.39,1.43-.43-1.17.87,1.17,1-1.43-.7-.22,1.65L7,14.54l-1.38.7,1.12-1-1.12-.87L7,13.76ZM6.39,23.65V25l1.47-.22-1.26.7,1,1.17L6.3,25.82l-.48,1.56,0-1.64-1.43.47,1.26-.83-1-1,1.3.61ZM3.31,20l1.38-.22-.47-1.43.86,1.17,1-1.17-.7,1.43L7.08,20l-1.65.26.7,1.39-1-1.13-.91,1.13.43-1.39Zm47.37-7.42L50.46,14,49,13.55l1.13.86-1.13,1,1.43-.69.22,1.65.26-1.65,1.39.69-1.13-1,1.13-.87L50.94,14Zm.39,10.85v1.38l-1.48-.21,1.26.65-1,1.21,1.3-.91.48,1.61V25.52L53.1,26l-1.25-.82,1-1-1.3.65Zm3.08-3.65-1.39-.22.43-1.43-.82,1.13-1-1.13L52,19.57l-1.64.22,1.6.26-.65,1.39,1-1.13.87,1.13-.39-1.39Z" style="fill:#f19c01"/></g></svg>