<svg id="Layer_1" data-name="Layer 1" xmlns="http://www.w3.org/2000/svg" viewBox="0 0 35.91 40.76"><title>shield</title><path id="Path_116" data-name="Path 116" d="M18.18.14A29.92,29.92,0,0,0,21,1.74a37.83,37.83,0,0,0,8.2,3A47.6,47.6,0,0,0,35.9,5.82c0,.45,0,.87,0,1.3-.05,2.1-.17,4.17-.38,6.27-.14,1.55-.35,3.11-.63,4.67-.22,1.22-.47,2.42-.78,3.63-.24.92-.5,1.81-.78,2.71s-.52,1.51-.8,2.24A25.16,25.16,0,0,1,25.3,37.17a15.78,15.78,0,0,1-1.32,1,19.39,19.39,0,0,1-2.12,1.22,16.7,16.7,0,0,1-2.54,1,9.62,9.62,0,0,1-1.37.38l-.59-.14c-.57-.14-1.13-.31-1.7-.5a18.5,18.5,0,0,1-5.45-2.92,15.63,15.63,0,0,1-1.67-1.48A26.61,26.61,0,0,1,2.15,24.28c-.21-.66-.38-1.34-.54-2-.24-.94-.42-1.91-.61-2.87C.8,18.25.64,17.11.5,16c-.19-1.49-.3-3-.38-4.48C0,9.59,0,7.71,0,5.82l.87-.09C1.94,5.59,3,5.42,4,5.21a41.37,41.37,0,0,0,5-1.37,58,58,0,0,0,6.08-2.45C16.1.94,17,.47,18,0l.23.14Zm-.73,3.09c-.78.38-1.53.73-2.31,1.08-1.51.69-3.06,1.3-4.62,1.84a43.58,43.58,0,0,1-5,1.44,26.33,26.33,0,0,1-2.73.54l-.1,0c0,1.72.1,3.46.24,5.18.12,1.39.26,2.78.47,4.15.17,1.06.36,2.1.59,3.14.17.75.36,1.53.57,2.28s.35,1.23.56,1.84a23,23,0,0,0,5.68,9.45,13.29,13.29,0,0,0,1.3,1.08A15.76,15.76,0,0,0,18,38.07l.59-.17a16.24,16.24,0,0,0,2.76-1.15c.47-.26.92-.55,1.37-.85a20.26,20.26,0,0,0,6.38-8c.26-.54.52-1.08.74-1.63s.54-1.36.77-2.05.55-1.67.78-2.52c.31-1.13.57-2.27.78-3.4.28-1.46.52-2.92.68-4.4.22-1.84.33-3.7.4-5.57V8.25l-1-.14c-.33,0-.68-.12-1-.16a46.2,46.2,0,0,1-6.35-1.63A39.9,39.9,0,0,1,20.3,4.45C19.5,4,18.72,3.55,18,3.13L17.83,3C17.71,3.11,17.57,3.16,17.45,3.23ZM23.7,26H12.24V17.4h1.42V15.51a4.31,4.31,0,0,1,8.62,0h0V17.4H23.7Zm-2.88-8.6V15.51a2.87,2.87,0,0,0-5.73,0h0v1.89h5.73Z" transform="translate(0)"/></svg>