<svg id="Layer_1" data-name="Layer 1" xmlns="http://www.w3.org/2000/svg" viewBox="0 0 30.98 32.11"><title>stock</title><g id="Group_120" data-name="Group 120"><path id="Path_152" data-name="Path 152" d="M8.7,22.46l-.63,2a3.81,3.81,0,1,0,3.87,4.65h7.33a3.8,3.8,0,1,0,0-1.69H12a3.9,3.9,0,0,0-2.25-2.67l.49-1.48h16.2a1.79,1.79,0,0,0,1.83-1.62L31,12.32a1,1,0,0,0-.14-.78.89.89,0,0,0-.7-.35H26.94A7.67,7.67,0,0,0,27,9.92a7.2,7.2,0,0,0-.28-2.11A.87.87,0,0,0,25,8.23a6.92,6.92,0,0,1,.21,1.69,6.93,6.93,0,1,1-3-5.63.89.89,0,0,0,1.2-.21.9.9,0,0,0-.21-1.2A8.2,8.2,0,0,0,18.42,1.4,8.52,8.52,0,0,0,9.9,9.9v0c0,.43.07.85.07,1.27H6.73L5.67,8.09a.76.76,0,0,0-.56-.56l-4-1.13A.85.85,0,0,0,.6,8L4.19,9.08Zm14.37,3.66a2.12,2.12,0,0,1,0,4.23A2.16,2.16,0,0,1,21,28.24a2.12,2.12,0,0,1,2.11-2.12ZM10.39,28.31a2.12,2.12,0,0,1-2.11,2.11,2.17,2.17,0,0,1-2.12-2.11,2.12,2.12,0,1,1,4.23,0Zm.14-15.43a8.51,8.51,0,0,0,16-.07H29l-2.39,8.38v.21c-.07.14-.14.14-.14.14H10.25L7.5,12.81h3Z" transform="translate(-0.01 0)"/><path id="Path_153" data-name="Path 153" d="M16.17,8.09a.85.85,0,0,0-1.59.62.2.2,0,0,0,0,.08l1.9,4.37a.88.88,0,0,0,.63.49h.14a.81.81,0,0,0,.57-.21l12.81-12a.87.87,0,0,0,.07-1.2A.87.87,0,0,0,29.54.2l-12,11.2Z" transform="translate(-0.01 0)"/></g></svg>