<svg id="Layer_1" data-name="Layer 1" xmlns="http://www.w3.org/2000/svg" viewBox="0 0 15.98 17.92"><title>trash</title><g id="Group_57" data-name="Group 57"><path id="Path_121" data-name="Path 121" d="M15.45,1.92H11.62L11.43.76A.92.92,0,0,0,10.52,0h-5a.9.9,0,0,0-.89.76L4.44,1.92H.53A.53.53,0,1,0,.53,3H1.67l.9,13.64A1.43,1.43,0,0,0,4,17.92H12a1.42,1.42,0,0,0,1.46-1.31L14.32,3h1.14a.53.53,0,0,0,0-1.05ZM5.67,1.05h4.72l.15.87h-5Zm6.68,15.5a.39.39,0,0,1-.42.32H4a.4.4,0,0,1-.42-.32L2.72,3H13.26Z" transform="translate(0 0)"/><path id="Path_122" data-name="Path 122" d="M8,15.18a.42.42,0,0,0,.42-.42V5.06a.42.42,0,0,0-.84,0v9.74A.42.42,0,0,0,8,15.18Z" transform="translate(0 0)"/><path id="Path_123" data-name="Path 123" d="M10.33,15.18h0a.42.42,0,0,0,.44-.4l.43-9.7a.43.43,0,0,0-.85,0l-.42,9.7a.41.41,0,0,0,.38.44Z" transform="translate(0 0)"/><path id="Path_124" data-name="Path 124" d="M5.71,15.18h0a.43.43,0,0,0,.43-.43h0L5.71,5a.41.41,0,0,0-.44-.4.42.42,0,0,0-.4.44l.42,9.7a.41.41,0,0,0,.41.4Z" transform="translate(0 0)"/></g></svg>